{"title":"Kyaa Kool Hain Hum 3 {2016} 1/3 DesiScr Rip XviD MP3 {Team DUS}","uid":13284905,"size":1562134176,"categoryP":"video","categoryS":"movies","magnet":"?xt=urn:btih:3ffb970a12f63659e8adfe0545dc4f64e58c8d21&amp;dn=Kyaa+Kool+Hain+Hum+3+%7B2016%7D+1%2F3+DesiScr+Rip+XviD+MP3+%7BTeam+DUS%7D+&amp;tr=udp%3A%2F%2Ftracker.leechers-paradise.org%3A6969&amp;tr=udp%3A%2F%2Fzer0day.ch%3A1337&amp;tr=udp%3A%2F%2Fopen.demonii.com%3A1337&amp;tr=udp%3A%2F%2Ftracker.coppersurfer.tk%3A6969&amp;tr=udp%3A%2F%2Fexodus.desync.com%3A6969","seeders":1,"leechers":0,"uploader":"makintos13","files":1,"time":1453532206,"description":"screens:\r\n \nhttp://imgmak.com/K9d \nhttp://imgmak.com/K9s \nhttp://imgmak.com/K94 \nhttp://imgmak.com/K98 \nhttp://imgmak.com/K9L \nhttp://imgmak.com/K9X \nhttp://imgmak.com/KMC \nhttp://imgmak.com/KMK \nhttp://imgmak.com/KMT\r\n\r\n\r\nYear.............: 2015\r\nSource: A DUS Exclusive!\r\nRipper...........: jnmjy\r\n\r\nGeneral\r\nFormat                                   : AVI\r\nFormat/Info                              : Audio Video Interleave\r\nFile size                                : 1.45 GiB\r\nDuration                                 : 2h 3mn\r\nOverall bit rate mode                    : Variable\r\nOverall bit rate                         : 1 683 Kbps\r\n\r\nVideo\r\nID                                       : 0\r\nFormat                                   : MPEG-4 Visual\r\nFormat profile                           : Advanced   \r\nFormat settings, BVOP                    : 2\r\nFormat settings, QPel                    : No\r\nFormat settings, GMC                     : No warppoints\r\nFormat settings, Matrix                  : Default (H.263)\r\nCodec ID                                 : XVID\r\nCodec ID/Hint                            : XviD\r\nDuration                                 : 2h 3mn\r\nBit rate                                 : 1 579 Kbps\r\nWidth                                    : 640 pixels\r\nHeight                                   : 272 pixels\r\nDisplay aspect ratio                     : 2.35:1\r\nFrame rate                               : 25.000 fps\r\nColor space                              : YUV\r\nChroma subsampling                       : 4:2:0\r\nBit depth                                : 8 bits\r\nScan type                                : Progressive\r\nCompression mode                         : Lossy\r\nBits/(Pixel*Frame)                       : 0.363\r\nStream size                              : 1.36 GiB (94%)\r\nWriting library                          : XviD 67\r\n\r\nAudio\r\nID                                       : 1\r\nFormat                                   : MPEG Audio\r\nFormat version                           : Version 1\r\nFormat profile                           : Layer 3\r\nMode                                     : Joint stereo\r\nCodec ID                                 : 55\r\nCodec ID/Hint                            : MP3\r\nDuration                                 : 2h 3mn\r\nBit rate mode                            : Variable\r\nBit rate                                 : 96.0 Kbps\r\nChannel(s)                               : 2 channels\r\nSampling rate                            : 32.0 KHz\r\nCompression mode                         : Lossy\r\nStream size                              : 83.3 MiB (6%)\r\nAlignment                                : Aligned on interleaves\r\nInterleave, duration                     : 36 ms (0.90 video frame)\r\nInterleave, preload duration             : 214 ms","torrent":{"xt":"urn:btih:3ffb970a12f63659e8adfe0545dc4f64e58c8d21","amp;dn":"Kyaa+Kool+Hain+Hum+3+%7B2016%7D+1%2F3+DesiScr+Rip+XviD+MP3+%7BTeam+DUS%7D+","amp;tr":["udp%3A%2F%2Ftracker.leechers-paradise.org%3A6969","udp%3A%2F%2Fzer0day.ch%3A1337","udp%3A%2F%2Fopen.demonii.com%3A1337","udp%3A%2F%2Ftracker.coppersurfer.tk%3A6969","udp%3A%2F%2Fexodus.desync.com%3A6969"],"infoHash":"3ffb970a12f63659e8adfe0545dc4f64e58c8d21","infoHashBuffer":{"type":"Buffer","data":[63,251,151,10,18,246,54,89,232,173,254,5,69,220,79,100,229,140,141,33]},"announce":[],"urlList":[]}}